<svg xmlns="http://www.w3.org/2000/svg" xmlns:xlink="http://www.w3.org/1999/xlink" width="181" height="109" viewBox="0 0 181 109"><defs><path id="8e7jb" d="M250.48 4561.03l-18.3 34.9-18.28-34.9h-17.23l35.5 67.72 35.39-67.54v-.18z"/><path id="8e7jc" d="M196.48 4601.79v34.65h17.48a54.33 54.33 0 0 1-17.48-34.65"/><path id="8e7jd" d="M267.28 4601.79v34.65H249.8a54.33 54.33 0 0 0 17.48-34.65"/><path id="8e7je" d="M323.33 4561.03l-39.44 75.4h17.2l39.43-75.4z"/><path id="8e7jf" d="M283.89 4595.68v-34.65h17.48a54.33 54.33 0 0 0-17.48 34.65"/><path id="8e7jg" d="M340.52 4601.79v34.65h-17.48a54.33 54.33 0 0 0 17.48-34.65"/><path id="8e7ja" d="M178 4652.98h181V4544.5H178z"/><path id="8e7ji" d="M178 4652.98h181V4544.5H178zm2.94-2.96h175.11v-102.55H180.94z"/><clipPath id="8e7jh"><use xlink:href="#8e7ja"/></clipPath></defs><g><g transform="translate(-178 -4544)"><g><g><use fill="#aea29a" xlink:href="#8e7jb"/></g><g><use fill="#aea29a" xlink:href="#8e7jc"/></g><g><use fill="#aea29a" xlink:href="#8e7jd"/></g><g><use fill="#aea29a" xlink:href="#8e7je"/></g><g><use fill="#aea29a" xlink:href="#8e7jf"/></g><g><use fill="#aea29a" xlink:href="#8e7jg"/></g><g/><g clip-path="url(#8e7jh)"><use fill="#aea29a" xlink:href="#8e7ji"/></g></g></g></g></svg>