<svg xmlns="http://www.w3.org/2000/svg" viewBox="0 0 1048.94 1027.67"><defs><style>.a{fill:#ffcf01;}.b{fill:#414042;}.c{fill:#d51c29;}</style></defs><title>logo</title><rect class="a" width="1048.94" height="1027.67" rx="69.22" ry="69.22"/><path class="b" d="M179.73,640.22V620.44H464v19.78H332.87V991.13H310.05V640.22H179.73Z" transform="translate(-88.85 -73.16)"/><path class="b" d="M731.74,971.35v19.78H480V620.44H729.2v19.78H502.78V788.55h213v19.78h-213v163h229Z" transform="translate(-88.85 -73.16)"/><path class="c" d="M319.45,594.67a176.91,176.91,0,0,1-55.72-8.48q-25.74-8.48-44.4-24.61a112.15,112.15,0,0,1-29.13-39.31q-10.47-23.19-10.46-52,0-37.33,19.51-62.79t52.89-33.94v-1.13Q225,362.18,210.56,341t-14.42-50.06q0-50.91,32-79.48t91.35-28.57q59.4,0,91.36,28.57t32,79.48q0,28.85-14.43,50.06t-41.58,31.39v1.13q33.37,8.48,52.89,33.94t19.52,62.79q0,28.85-10.47,52a112.2,112.2,0,0,1-29.13,39.31q-18.67,16.12-44.41,24.61A177,177,0,0,1,319.45,594.67Zm0-50.91q32.25,0,53.74-19.23t21.5-54.3q0-32.8-21.5-51.19t-53.74-18.38q-32.24,0-53.74,18.38t-21.49,51.19q0,35.08,21.49,54.3T319.45,543.76Zm0-310q-26,0-44.12,15.55t-18.1,45q0,28.29,17.54,43.27t44.68,15q27.15,0,44.69-15t17.54-43.27q0-29.4-18.1-45T319.45,233.78Z" transform="translate(-88.85 -73.16)"/><path class="c" d="M480.44,190.79h271v53.74a705.43,705.43,0,0,0-56.57,72.69A529.7,529.7,0,0,0,650.42,397a538.61,538.61,0,0,0-30.83,89.09,585.34,585.34,0,0,0-15.84,100.69H533A470.52,470.52,0,0,1,549.28,494a566.78,566.78,0,0,1,33.06-88.81,613.87,613.87,0,0,1,47-82.59,702.2,702.2,0,0,1,57.56-74.1H480.44v-57.7Z" transform="translate(-88.85 -73.16)"/><path class="c" d="M907.18,594.67a176.91,176.91,0,0,1-55.72-8.48q-25.74-8.48-44.4-24.61a112.15,112.15,0,0,1-29.13-39.31q-10.47-23.19-10.46-52,0-37.33,19.51-62.79t52.89-33.94v-1.13Q812.72,362.18,798.29,341t-14.42-50.06q0-50.91,32-79.48t91.35-28.57q59.4,0,91.36,28.57t32,79.48q0,28.85-14.43,50.06t-41.58,31.39v1.13q33.37,8.48,52.89,33.94t19.52,62.79q0,28.85-10.47,52a112.2,112.2,0,0,1-29.13,39.31q-18.67,16.12-44.41,24.61A177,177,0,0,1,907.18,594.67Zm0-50.91q32.25,0,53.74-19.23t21.5-54.3q0-32.8-21.5-51.19t-53.74-18.38q-32.24,0-53.74,18.38t-21.49,51.19q0,35.08,21.49,54.3T907.18,543.76Zm0-310q-26,0-44.12,15.55t-18.1,45q0,28.29,17.54,43.27t44.68,15q27.15,0,44.69-15t17.54-43.27q0-29.4-18.1-45T907.18,233.78Z" transform="translate(-88.85 -73.16)"/><path class="b" d="M745.11,620.44h28.65l234,340h1v-340h22.82V991.13h-26.88l-235.8-342.8h-1v342.8H745.11V620.44Z" transform="translate(-88.85 -73.16)"/><path class="b" d="M1059.13,191.6a37.7,37.7,0,0,1-15.2-3.08,39.4,39.4,0,0,1-20.74-20.74,38.77,38.77,0,0,1,0-30.29,39.06,39.06,0,0,1,8.37-12.32,40.14,40.14,0,0,1,12.37-8.32,38.77,38.77,0,0,1,30.29,0,40.16,40.16,0,0,1,12.37,8.32,38.4,38.4,0,0,1,8.32,12.32,39.38,39.38,0,0,1,0,30.29,39,39,0,0,1-8.32,12.37,39.7,39.7,0,0,1-12.37,8.37A37.45,37.45,0,0,1,1059.13,191.6Zm0-5.13a32.41,32.41,0,0,0,13.09-2.62,31.09,31.09,0,0,0,10.32-7.19,33.66,33.66,0,0,0,6.78-10.73,37.11,37.11,0,0,0,0-26.6,33.08,33.08,0,0,0-6.78-10.68,31.49,31.49,0,0,0-10.32-7.14,32.41,32.41,0,0,0-13.09-2.62,32.77,32.77,0,0,0-13.14,2.62,31.91,31.91,0,0,0-10.42,7.14,32.62,32.62,0,0,0-6.83,10.68,37.11,37.11,0,0,0,0,26.6,33.19,33.19,0,0,0,6.83,10.73,31.5,31.5,0,0,0,10.42,7.19A32.77,32.77,0,0,0,1059.13,186.47Zm19.41-12.12h-6.37l-12.43-20H1050v20h-5.34V130.91h19q8.63,0,12,3.08a10.81,10.81,0,0,1,3.39,8.42,13.1,13.1,0,0,1-1,5.44,9.24,9.24,0,0,1-2.88,3.65,12.54,12.54,0,0,1-4.36,2.05,24.25,24.25,0,0,1-5.39.77Zm-20.44-24.24H1063a19.27,19.27,0,0,0,5-.62,7.66,7.66,0,0,0,3.8-2.26,7.13,7.13,0,0,0,1.49-4.93,7.34,7.34,0,0,0-1-4.06,6.4,6.4,0,0,0-2.52-2.26,11,11,0,0,0-3.49-1,30.12,30.12,0,0,0-3.9-.26H1050v15.4h8.11Z" transform="translate(-88.85 -73.16)"/></svg>