<svg xmlns="http://www.w3.org/2000/svg" xmlns:xlink="http://www.w3.org/1999/xlink" width="137" height="83" viewBox="0 0 137 83"><defs><path id="fsssb" d="M277.5 127.68l-13.93 26.25-13.93-26.25h-13.11l27.02 50.93 26.95-50.8v-.13z"/><path id="fsssc" d="M236 157.74v26h13.23a40.65 40.65 0 0 1-13.23-26"/><path id="fsssd" d="M289.58 157.74v26h-13.23a40.65 40.65 0 0 0 13.23-26"/><path id="fssse" d="M332 127.15l-29.85 56.59h13L345 127.15z"/><path id="fsssf" d="M302.15 153.15v-26h13.23a40.65 40.65 0 0 0-13.23 26"/><path id="fsssg" d="M345 157.74v26h-13.23a40.65 40.65 0 0 0 13.23-26"/><path id="fsssa" d="M178 240.94h225V114.75H178z"/><path id="fsssi" d="M222.02 196.14h136.96v-81.39H222.02zm2.22-2.22h132.51v-76.95h-132.5z"/><clipPath id="fsssh"><use xlink:href="#fsssa"/></clipPath></defs><g><g transform="translate(-222 -114)"><g><use fill="#aea29a" xlink:href="#fsssb"/></g><g><g><use fill="#aea29a" xlink:href="#fsssc"/></g><g><use fill="#aea29a" xlink:href="#fsssd"/></g><g><use fill="#aea29a" xlink:href="#fssse"/></g><g><use fill="#aea29a" xlink:href="#fsssf"/></g><g><use fill="#aea29a" xlink:href="#fsssg"/></g><g/><g clip-path="url(#fsssh)"><use fill="#aea29a" xlink:href="#fsssi"/></g></g></g></g></svg>