<svg xmlns="http://www.w3.org/2000/svg" xmlns:xlink="http://www.w3.org/1999/xlink" width="225" height="19" viewBox="0 0 225 19"><defs><path id="bm6ea" d="M192.33 222.72h-.17l-.1.15-5.36 8.26-5.36-8.26-.1-.15H178v17.92h3.62V229.8l4.8 7.31.28.42.27-.42 4.82-7.3v10.83h3.61v-17.92h-.32z"/><path id="bm6eb" d="M203.75 237.19v-3.99h6.92V229.74h-6.92v-3.55H211.26V222.73H200.14v17.92h11.27V237.2h-.32z"/><path id="bm6ec" d="M225.75 222.72h-.19l-.09.17-3.94 7.2-3.94-7.2-.1-.17h-4l.27.48 5.86 10.4v7.04h3.62V233.6l5.86-10.39.27-.48h-.55z"/><path id="bm6ed" d="M235.87 237.19v-3.99h6.91V229.74h-6.92v-3.55H243.38V222.73H232.25v17.92h11.27V237.2h-.32z"/><path id="bm6ee" d="M255.86 233.8c2.31-.76 3.67-2.74 3.67-5.38 0-3.35-2.49-5.7-6.05-5.7h-6.01v17.92h3.61V234.12h.86l4 6.37.1.15h4.24l-.33-.5zm-4.78-7.62h2.03c1.26 0 2.77.4 2.77 2.24 0 1.86-1.5 2.24-2.77 2.24h-2.03z"/><path id="bm6ef" d="M272.29 222.72h-.33V226.18h7.94l-8.73 13.97-.31.5h14.47V237.17h-8.24l8.69-13.96.3-.5h-.58z"/><path id="bm6eg" d="M292.7 237.19v-3.99h6.91V229.74h-6.92v-3.55H300.2V222.73H289.08v17.92h11.27V237.2h-.32z"/><path id="bm6eh" d="M303.13 222.72h-.32V226.18H307.58v14.46h3.61v-14.46H315.96V222.72h-.33z"/><path id="bm6ei" d="M327.61 233.8c2.31-.76 3.67-2.74 3.67-5.38 0-3.35-2.49-5.7-6.05-5.7h-6.01v17.92h3.62V234.12h.85l4 6.37.1.15h4.24l-.33-.5zm-4.77-7.62h2.02c1.26 0 2.76.4 2.76 2.24 0 1.86-1.5 2.24-2.76 2.24h-2.02z"/><path id="bm6ej" d="M343.43 222.43c-5.17 0-9.07 3.98-9.07 9.26 0 5.27 3.9 9.25 9.07 9.25s9.07-3.98 9.07-9.25c0-5.28-3.9-9.26-9.07-9.26m0 15.05c-3.13 0-5.4-2.43-5.4-5.8 0-3.35 2.27-5.79 5.4-5.79 3.13 0 5.4 2.44 5.4 5.8s-2.27 5.8-5.4 5.8"/><path id="bm6ek" d="M366.95 222.72h-.33v10.96c0 2.41-1.23 3.8-3.38 3.8-2.94 0-3.38-2.38-3.38-3.8v-10.96h-3.61v11.33c0 4.06 2.88 6.89 7 6.89 4.11 0 6.99-2.83 6.99-6.89v-11.33h-.33z"/><path id="bm6el" d="M378.6 237.19v-3.99h6.91V229.74h-6.92v-3.55H386.1V222.73H374.98v17.92h11.27V237.2h-.32z"/><path id="bm6em" d="M402.68 240.14l-4.09-6.34c2.31-.76 3.67-2.74 3.67-5.38 0-3.35-2.49-5.7-6.05-5.7h-6.01v17.92h3.61V234.12h.86l4 6.37.1.15h4.24zm-8.87-13.96h2.03c1.26 0 2.77.4 2.77 2.24 0 1.86-1.5 2.24-2.77 2.24h-2.03z"/></defs><g><g clip-path="url(#clip-3577A4F5-B397-5676-0067-94C036F5092B)" transform="translate(-178 -222)"><use fill="#fff" xlink:href="#bm6ea"/></g><g clip-path="url(#clip-3577A4F5-B397-5676-0067-94C036F5092B)" transform="translate(-178 -222)"><use fill="#fff" xlink:href="#bm6eb"/></g><g clip-path="url(#clip-3577A4F5-B397-5676-0067-94C036F5092B)" transform="translate(-178 -222)"><use fill="#fff" xlink:href="#bm6ec"/></g><g clip-path="url(#clip-3577A4F5-B397-5676-0067-94C036F5092B)" transform="translate(-178 -222)"><use fill="#fff" xlink:href="#bm6ed"/></g><g clip-path="url(#clip-3577A4F5-B397-5676-0067-94C036F5092B)" transform="translate(-178 -222)"><use fill="#fff" xlink:href="#bm6ee"/></g><g clip-path="url(#clip-3577A4F5-B397-5676-0067-94C036F5092B)" transform="translate(-178 -222)"><use fill="#fff" xlink:href="#bm6ef"/></g><g clip-path="url(#clip-3577A4F5-B397-5676-0067-94C036F5092B)" transform="translate(-178 -222)"><use fill="#fff" xlink:href="#bm6eg"/></g><g clip-path="url(#clip-3577A4F5-B397-5676-0067-94C036F5092B)" transform="translate(-178 -222)"><use fill="#fff" xlink:href="#bm6eh"/></g><g clip-path="url(#clip-3577A4F5-B397-5676-0067-94C036F5092B)" transform="translate(-178 -222)"><use fill="#fff" xlink:href="#bm6ei"/></g><g clip-path="url(#clip-3577A4F5-B397-5676-0067-94C036F5092B)" transform="translate(-178 -222)"><use fill="#fff" xlink:href="#bm6ej"/></g><g clip-path="url(#clip-3577A4F5-B397-5676-0067-94C036F5092B)" transform="translate(-178 -222)"><use fill="#fff" xlink:href="#bm6ek"/></g><g clip-path="url(#clip-3577A4F5-B397-5676-0067-94C036F5092B)" transform="translate(-178 -222)"><use fill="#fff" xlink:href="#bm6el"/></g><g clip-path="url(#clip-3577A4F5-B397-5676-0067-94C036F5092B)" transform="translate(-178 -222)"><use fill="#fff" xlink:href="#bm6em"/></g></g></svg>